<svg width="36" height="36" viewBox="0 0 36 36" fill="none" xmlns="http://www.w3.org/2000/svg">
<g clip-path="url(#clip0_81_12)">
<path d="M19.944 35.2665C17.793 35.8065 15.7972 34.1775 15.651 32.0715C15.489 29.709 15.1335 27.5377 14.688 26.244C14.4067 25.434 13.6102 23.967 12.348 22.5585C11.0947 21.1545 9.4635 19.9058 7.55325 19.386C6.04125 18.972 4.5 17.6625 4.5 15.75V6.75C4.5 4.84875 6.0345 3.456 7.758 3.2715C10.1655 3.01725 11.277 2.33775 12.411 1.64475L12.519 1.5795C13.131 1.206 13.8195 0.79425 14.7015 0.4905C15.5947 0.18 16.6388 0 18 0H25.875C27.9832 0 29.4727 1.0755 30.2265 2.394C30.5955 3.03975 30.798 3.75975 30.798 4.44825C30.798 4.79025 30.7463 5.15025 30.6248 5.49225C31.077 6.08175 31.4797 6.7905 31.7227 7.51725C31.9702 8.25975 32.1097 9.23175 31.7317 10.1048C31.887 10.3973 32.0018 10.7078 32.0895 11.0115C32.2628 11.619 32.3438 12.2872 32.3438 12.9375C32.3438 13.5878 32.2628 14.256 32.0895 14.8635C32.0107 15.1335 31.9095 15.4125 31.779 15.6803C32.6655 16.965 32.7195 18.3802 32.3055 19.5795C31.842 20.9115 30.771 22.0545 29.6055 22.4415C27.6998 23.0783 25.5487 23.0625 23.9445 22.9163C23.6114 22.8863 23.2791 22.8487 22.9478 22.8038C23.7288 26.1471 23.6809 29.6306 22.8083 32.9513C22.4977 34.0942 21.5707 34.8592 20.5312 35.1203L19.944 35.2665ZM25.875 2.25H18C16.8525 2.25 16.0583 2.403 15.435 2.61675C14.8028 2.835 14.2965 3.132 13.689 3.501L13.599 3.55725C12.3503 4.31775 10.9035 5.19975 7.9965 5.51025C7.24725 5.589 6.75 6.16275 6.75 6.74775V15.75C6.75 16.3237 7.2585 16.9718 8.145 17.2125C10.6087 17.8875 12.5933 19.4557 14.0265 21.0578C15.4553 22.6553 16.4205 24.3765 16.812 25.506C17.3588 27.081 17.7277 29.484 17.8965 31.9185C17.9528 32.733 18.7065 33.2573 19.3973 33.084L19.9868 32.9378C20.3468 32.8478 20.5672 32.6138 20.6347 32.364C21.5541 28.8622 21.4408 25.1693 20.3085 21.7305C20.245 21.5394 20.2339 21.3348 20.2764 21.1379C20.319 20.9411 20.4136 20.7593 20.5503 20.6115C20.6871 20.4637 20.861 20.3553 21.054 20.2977C21.2469 20.24 21.4518 20.2352 21.6473 20.2838H21.654L21.6855 20.2927L21.816 20.322C22.5854 20.4854 23.3637 20.6033 24.147 20.6753C25.6388 20.8103 27.4252 20.7967 28.8945 20.3085C29.2882 20.1758 29.907 19.6313 30.177 18.8438C30.4177 18.1507 30.3727 17.3363 29.5785 16.5465L28.7843 15.75L29.5785 14.9535C29.6752 14.859 29.8148 14.6385 29.925 14.2448C30.033 13.869 30.0938 13.4122 30.0938 12.9375C30.0938 12.4628 30.033 12.006 29.925 11.6302C29.8125 11.2388 29.6752 11.016 29.5785 10.9215L28.7843 10.125L29.5785 9.3285C29.6842 9.22275 29.8237 8.9325 29.5898 8.2305C29.3456 7.55274 28.958 6.93568 28.4535 6.4215L27.6593 5.625L28.4535 4.8285C28.467 4.81725 28.5457 4.716 28.5457 4.446C28.5354 4.11674 28.4417 3.79548 28.2735 3.51225C27.9 2.862 27.1418 2.25 25.875 2.25Z" fill="white"/>
</g>
<defs>
<clipPath id="clip0_81_12">
<rect width="36" height="36" fill="white"/>
</clipPath>
</defs>
</svg>
