<svg width="36" height="36" viewBox="0 0 36 36" fill="none" xmlns="http://www.w3.org/2000/svg">
<g clip-path="url(#clip0_131_107)">
<path d="M18 14.031L15.9885 10.0058C15.489 9.009 14.6228 7.57575 13.3965 6.417C12.1905 5.27625 10.746 4.5 9 4.5C5.229 4.5 2.25 7.4835 2.25 11.07C2.25 13.7948 3.4965 15.7185 6.453 18.6525C7.21125 19.404 8.07525 20.2163 9.0315 21.1118C11.5245 23.4518 14.625 26.3632 18 30.2557C21.375 26.3632 24.4755 23.4518 26.9685 21.1118C27.9247 20.2163 28.791 19.4018 29.547 18.6525C32.5035 15.7185 33.75 13.7948 33.75 11.07C33.75 7.4835 30.771 4.5 27 4.5C25.2517 4.5 23.8095 5.27625 22.6035 6.417C21.3772 7.57575 20.511 9.009 20.0115 10.0058L18 14.031ZM18.882 32.688C18.7736 32.8164 18.6386 32.9195 18.4863 32.9903C18.3339 33.061 18.168 33.0977 18 33.0977C17.832 33.0977 17.6661 33.061 17.5137 32.9903C17.3614 32.9195 17.2264 32.8164 17.118 32.688C13.5157 28.4085 10.2555 25.3485 7.57125 22.8308C2.925 18.468 0 15.7253 0 11.07C0 6.19875 4.0275 2.25 9 2.25C12.6 2.25 15.1177 4.6125 16.659 6.768C17.244 7.58925 17.6895 8.379 18 9C18.3892 8.22279 18.8376 7.4766 19.341 6.768C20.8822 4.61025 23.4 2.25 27 2.25C31.9725 2.25 36 6.19875 36 11.07C36 15.7253 33.075 18.468 28.4288 22.8308C25.7445 25.3507 22.4843 28.413 18.882 32.688Z" fill="white"/>
</g>
<defs>
<clipPath id="clip0_131_107">
<rect width="36" height="36" fill="white"/>
</clipPath>
</defs>
</svg>
