<svg width="36" height="36" viewBox="0 0 36 36" fill="none" xmlns="http://www.w3.org/2000/svg">
<g clip-path="url(#clip0_131_95)">
<path d="M1.125 22.2749C1.42337 22.2749 1.70952 22.3934 1.9205 22.6044C2.13147 22.8154 2.25 23.1015 2.25 23.3999V29.0249C2.25 29.6216 2.48705 30.1939 2.90901 30.6159C3.33097 31.0379 3.90326 31.2749 4.5 31.2749H31.5C32.0967 31.2749 32.669 31.0379 33.091 30.6159C33.5129 30.1939 33.75 29.6216 33.75 29.0249V23.3999C33.75 23.1015 33.8685 22.8154 34.0795 22.6044C34.2905 22.3934 34.5766 22.2749 34.875 22.2749C35.1734 22.2749 35.4595 22.3934 35.6705 22.6044C35.8815 22.8154 36 23.1015 36 23.3999V29.0249C36 30.2184 35.5259 31.363 34.682 32.2069C33.8381 33.0508 32.6935 33.5249 31.5 33.5249H4.5C3.30653 33.5249 2.16193 33.0508 1.31802 32.2069C0.474106 31.363 0 30.2184 0 29.0249V23.3999C0 23.1015 0.118526 22.8154 0.329505 22.6044C0.540483 22.3934 0.826631 22.2749 1.125 22.2749Z" fill="white"/>
<path d="M17.2039 26.6715C17.3084 26.7763 17.4326 26.8594 17.5693 26.9161C17.7059 26.9728 17.8525 27.002 18.0004 27.002C18.1484 27.002 18.2949 26.9728 18.4316 26.9161C18.5683 26.8594 18.6924 26.7763 18.7969 26.6715L25.5469 19.9215C25.7582 19.7103 25.8769 19.4237 25.8769 19.125C25.8769 18.8263 25.7582 18.5397 25.5469 18.3285C25.3357 18.1173 25.0492 17.9986 24.7504 17.9986C24.4517 17.9986 24.1652 18.1173 23.9539 18.3285L19.1254 23.1593V3.375C19.1254 3.07663 19.0069 2.79048 18.7959 2.5795C18.585 2.36853 18.2988 2.25 18.0004 2.25C17.7021 2.25 17.4159 2.36853 17.205 2.5795C16.994 2.79048 16.8754 3.07663 16.8754 3.375V23.1593L12.0469 18.3285C11.9423 18.2239 11.8182 18.1409 11.6815 18.0843C11.5448 18.0277 11.3984 17.9986 11.2504 17.9986C11.1025 17.9986 10.956 18.0277 10.8194 18.0843C10.6827 18.1409 10.5585 18.2239 10.4539 18.3285C10.3493 18.4331 10.2664 18.5573 10.2098 18.6939C10.1532 18.8306 10.124 18.9771 10.124 19.125C10.124 19.2729 10.1532 19.4194 10.2098 19.5561C10.2664 19.6927 10.3493 19.8169 10.4539 19.9215L17.2039 26.6715Z" fill="white"/>
</g>
<defs>
<clipPath id="clip0_131_95">
<rect width="36" height="36" fill="white"/>
</clipPath>
</defs>
</svg>
