<svg width="36" height="36" viewBox="0 0 36 36" fill="none" xmlns="http://www.w3.org/2000/svg">
<g clip-path="url(#clip0_131_21)">
<path d="M16.6107 0.104595C18.7617 -0.435406 20.7574 1.1936 20.9037 3.29959C21.0657 5.66209 21.4212 7.83335 21.8667 9.12709C22.1479 9.9371 22.9444 11.4041 24.2067 12.8126C25.4599 14.2166 27.0912 15.4653 29.0014 15.9851C30.5134 16.3991 32.0547 17.7086 32.0547 19.6211V28.6211C32.0547 30.5223 30.5202 31.9151 28.7967 32.0996C26.3892 32.3538 25.2777 33.0333 24.1437 33.7263L24.0357 33.7916C23.4237 34.1651 22.7352 34.5768 21.8532 34.8806C20.9599 35.1911 19.9159 35.3711 18.5547 35.3711H10.6797C8.57144 35.3711 7.08194 34.2956 6.32819 32.9771C5.95919 32.3313 5.75669 31.6113 5.75669 30.9228C5.75669 30.5808 5.80844 30.2208 5.92994 29.8788C5.47769 29.2893 5.07494 28.5806 4.83194 27.8538C4.58444 27.1113 4.44494 26.1393 4.82294 25.2663C4.66769 24.9738 4.55294 24.6633 4.46519 24.3596C4.29194 23.7521 4.21094 23.0838 4.21094 22.4336C4.21094 21.7833 4.29194 21.1151 4.46519 20.5076C4.54394 20.2376 4.64519 19.9586 4.77569 19.6908C3.88919 18.4061 3.83519 16.9908 4.24919 15.7916C4.71269 14.4596 5.78369 13.3166 6.94919 12.9296C8.85494 12.2928 11.0059 12.3086 12.6102 12.4548C12.9432 12.4848 13.2756 12.5223 13.6069 12.5673C12.8259 9.224 12.8738 5.74045 13.7464 2.41984C14.0569 1.27684 14.9839 0.511845 16.0234 0.250843L16.6107 0.104595ZM10.6797 33.1211H18.5547C19.7022 33.1211 20.4964 32.9681 21.1197 32.7543C21.7519 32.5361 22.2582 32.2391 22.8657 31.8701L22.9557 31.8138C24.2044 31.0533 25.6512 30.1713 28.5582 29.8608C29.3074 29.7821 29.8047 29.2083 29.8047 28.6233V19.6211C29.8047 19.0473 29.2962 18.3993 28.4097 18.1586C25.9459 17.4836 23.9614 15.9153 22.5282 14.3133C21.0994 12.7158 20.1342 10.9946 19.7427 9.86509C19.1959 8.29009 18.8269 5.88709 18.6582 3.45259C18.6019 2.6381 17.8482 2.11384 17.1574 2.28709L16.5679 2.43334C16.2079 2.52334 15.9874 2.75734 15.9199 3.0071C15.0006 6.50885 15.1139 10.2018 16.2462 13.6406C16.3097 13.8317 16.3208 14.0363 16.2783 14.2332C16.2357 14.43 16.1411 14.6118 16.0044 14.7596C15.8676 14.9074 15.6937 15.0158 15.5007 15.0734C15.3078 15.1311 15.1029 15.1359 14.9074 15.0873H14.9007L14.8692 15.0783L14.7387 15.0491C13.9693 14.8857 13.1909 14.7678 12.4077 14.6958C10.9159 14.5608 9.12944 14.5743 7.66019 15.0626C7.26644 15.1953 6.64769 15.7398 6.37769 16.5273C6.13694 17.2203 6.18194 18.0348 6.97619 18.8246L7.77044 19.6211L6.97619 20.4176C6.87944 20.5121 6.73994 20.7326 6.62969 21.1263C6.52169 21.5021 6.46094 21.9588 6.46094 22.4336C6.46094 22.9083 6.52169 23.3651 6.62969 23.7408C6.74219 24.1323 6.87944 24.3551 6.97619 24.4496L7.77044 25.2461L6.97619 26.0426C6.87044 26.1483 6.73094 26.4386 6.96494 27.1406C7.20906 27.8184 7.59664 28.4354 8.10119 28.9496L8.89544 29.7461L8.10119 30.5426C8.08769 30.5538 8.00894 30.6551 8.00894 30.9251C8.0193 31.2544 8.11296 31.5756 8.28119 31.8588C8.65469 32.5091 9.41294 33.1211 10.6797 33.1211Z" fill="white"/>
</g>
<defs>
<clipPath id="clip0_131_21">
<rect width="36" height="36" fill="white" transform="matrix(-1 0 0 -1 36 36)"/>
</clipPath>
</defs>
</svg>
